<svg width="23" height="23" viewBox="0 0 23 23" fill="none" xmlns="http://www.w3.org/2000/svg">
<path d="M8.97959 5.28042C8.80649 5.90128 8.71943 6.54296 8.72084 7.1875C8.72084 11.0975 11.9025 14.2792 15.8125 14.2792C16.4642 14.2792 17.1063 14.1929 17.7196 14.0204C17.2162 15.2573 16.3557 16.3163 15.248 17.0622C14.1403 17.8081 12.8355 18.2071 11.5 18.2083C7.80084 18.2083 4.79167 15.1992 4.79167 11.5C4.79167 8.69208 6.52625 6.27708 8.97959 5.28042ZM11.5 2.875C9.79414 2.875 8.12658 3.38085 6.70821 4.32857C5.28984 5.2763 4.18435 6.62334 3.53154 8.19936C2.87874 9.77537 2.70793 11.5096 3.04073 13.1827C3.37353 14.8557 4.19498 16.3926 5.40121 17.5988C6.60744 18.805 8.14426 19.6265 9.81735 19.9593C11.4904 20.2921 13.2246 20.1213 14.8006 19.4685C16.3767 18.8157 17.7237 17.7102 18.6714 16.2918C19.6192 14.8734 20.125 13.2059 20.125 11.5C20.125 11.0592 20.0867 10.6183 20.0292 10.1967C19.5503 10.8681 18.9176 11.4152 18.184 11.792C17.4504 12.1688 16.6372 12.3644 15.8125 12.3625C14.7154 12.3625 13.6467 12.0141 12.7604 11.3674C11.8741 10.7208 11.2162 9.80932 10.8814 8.76454C10.5467 7.71976 10.5524 6.59566 10.8978 5.55436C11.2433 4.51306 11.9105 3.60839 12.8033 2.97083C12.3817 2.91333 11.9408 2.875 11.5 2.875Z" fill="#FCAB32"/>
</svg>
