<svg width="23" height="23" viewBox="0 0 23 23" fill="none" xmlns="http://www.w3.org/2000/svg">
<g clip-path="url(#clip0_235_253)">
<path d="M10.4219 2.875V1.4375C10.4219 1.15156 10.5355 0.877338 10.7377 0.67515C10.9398 0.472963 11.2141 0.359375 11.5 0.359375C11.7859 0.359375 12.0602 0.472963 12.2623 0.67515C12.4645 0.877338 12.5781 1.15156 12.5781 1.4375V2.875C12.5781 3.16094 12.4645 3.43516 12.2623 3.63735C12.0602 3.83954 11.7859 3.95312 11.5 3.95312C11.2141 3.95312 10.9398 3.83954 10.7377 3.63735C10.5355 3.43516 10.4219 3.16094 10.4219 2.875ZM17.6094 11.5C17.6094 12.7083 17.2511 13.8895 16.5798 14.8942C15.9085 15.8989 14.9543 16.6819 13.838 17.1443C12.7216 17.6067 11.4932 17.7277 10.3081 17.492C9.12302 17.2563 8.03443 16.6744 7.18002 15.82C6.32561 14.9656 5.74375 13.877 5.50802 12.6919C5.27228 11.5068 5.39327 10.2784 5.85567 9.16204C6.31808 8.0457 7.10113 7.09155 8.10581 6.42024C9.11049 5.74893 10.2917 5.39063 11.5 5.39062C13.1198 5.39229 14.6728 6.03649 15.8181 7.18186C16.9635 8.32723 17.6077 9.8802 17.6094 11.5ZM15.4531 11.5C15.4531 10.7181 15.2213 9.95385 14.7869 9.30376C14.3525 8.65367 13.7351 8.14699 13.0128 7.84779C12.2905 7.54859 11.4956 7.4703 10.7288 7.62283C9.96195 7.77537 9.25757 8.15186 8.70472 8.70472C8.15186 9.25757 7.77537 9.96195 7.62283 10.7288C7.4703 11.4956 7.54859 12.2905 7.84779 13.0128C8.14699 13.7351 8.65367 14.3525 9.30376 14.7869C9.95385 15.2213 10.7181 15.4531 11.5 15.4531C12.5481 15.4519 13.5529 15.0351 14.294 14.294C15.0351 13.5529 15.4519 12.5481 15.4531 11.5ZM4.62785 6.1534C4.72814 6.25369 4.8472 6.33324 4.97823 6.38751C5.10926 6.44179 5.2497 6.46972 5.39152 6.46972C5.53335 6.46972 5.67379 6.44179 5.80482 6.38751C5.93585 6.33324 6.05491 6.25369 6.1552 6.1534C6.25548 6.05311 6.33503 5.93405 6.38931 5.80302C6.44358 5.67199 6.47152 5.53155 6.47152 5.38973C6.47152 5.2479 6.44358 5.10746 6.38931 4.97643C6.33503 4.8454 6.25548 4.72634 6.1552 4.62605L5.07707 3.54793C4.87453 3.34539 4.59983 3.23161 4.3134 3.23161C4.02697 3.23161 3.75226 3.34539 3.54973 3.54793C3.34719 3.75047 3.2334 4.02517 3.2334 4.3116C3.2334 4.59803 3.34719 4.87274 3.54973 5.07527L4.62785 6.1534ZM4.62785 16.8448L3.54973 17.9229C3.44944 18.0232 3.36989 18.1423 3.31561 18.2733C3.26134 18.4043 3.2334 18.5448 3.2334 18.6866C3.2334 18.8284 3.26134 18.9689 3.31561 19.0999C3.36989 19.2309 3.44944 19.35 3.54973 19.4503C3.75226 19.6528 4.02697 19.7666 4.3134 19.7666C4.45523 19.7666 4.59566 19.7387 4.72669 19.6844C4.85773 19.6301 4.97678 19.5506 5.07707 19.4503L6.1552 18.3721C6.35773 18.1696 6.47152 17.8949 6.47152 17.6085C6.47152 17.322 6.35773 17.0473 6.1552 16.8448C5.95266 16.6423 5.67796 16.5285 5.39152 16.5285C5.10509 16.5285 4.83039 16.6423 4.62785 16.8448ZM17.6094 6.46875C17.751 6.46886 17.8913 6.44107 18.0221 6.38696C18.153 6.33285 18.272 6.25349 18.3721 6.1534L19.4503 5.07527C19.5506 4.97499 19.6301 4.85593 19.6844 4.7249C19.7387 4.59387 19.7666 4.45343 19.7666 4.3116C19.7666 4.16977 19.7387 4.02934 19.6844 3.89831C19.6301 3.76727 19.5506 3.64822 19.4503 3.54793C19.35 3.44764 19.2309 3.36809 19.0999 3.31382C18.9689 3.25954 18.8284 3.23161 18.6866 3.23161C18.5448 3.23161 18.4043 3.25954 18.2733 3.31382C18.1423 3.36809 18.0232 3.44764 17.9229 3.54793L16.8448 4.62605C16.6931 4.77685 16.5897 4.96935 16.5478 5.17907C16.5058 5.3888 16.5271 5.60626 16.6091 5.80381C16.6911 6.00137 16.83 6.17007 17.0081 6.28848C17.1862 6.40688 17.3955 6.46963 17.6094 6.46875ZM18.3721 16.8466C18.1696 16.6441 17.8949 16.5303 17.6085 16.5303C17.322 16.5303 17.0473 16.6441 16.8448 16.8466C16.6423 17.0491 16.5285 17.3238 16.5285 17.6103C16.5285 17.8967 16.6423 18.1714 16.8448 18.3739L17.9229 19.4521C18.1255 19.6546 18.4002 19.7684 18.6866 19.7684C18.973 19.7684 19.2477 19.6546 19.4503 19.4521C19.6528 19.2495 19.7666 18.9748 19.7666 18.6884C19.7666 18.402 19.6528 18.1273 19.4503 17.9247L18.3721 16.8466ZM3.95312 11.5C3.95312 11.2141 3.83954 10.9398 3.63735 10.7377C3.43516 10.5355 3.16094 10.4219 2.875 10.4219H1.4375C1.15156 10.4219 0.877338 10.5355 0.67515 10.7377C0.472963 10.9398 0.359375 11.2141 0.359375 11.5C0.359375 11.7859 0.472963 12.0602 0.67515 12.2623C0.877338 12.4645 1.15156 12.5781 1.4375 12.5781H2.875C3.16094 12.5781 3.43516 12.4645 3.63735 12.2623C3.83954 12.0602 3.95312 11.7859 3.95312 11.5ZM11.5 19.0469C11.2141 19.0469 10.9398 19.1605 10.7377 19.3627C10.5355 19.5648 10.4219 19.8391 10.4219 20.125V21.5625C10.4219 21.8484 10.5355 22.1227 10.7377 22.3248C10.9398 22.527 11.2141 22.6406 11.5 22.6406C11.7859 22.6406 12.0602 22.527 12.2623 22.3248C12.4645 22.1227 12.5781 21.8484 12.5781 21.5625V20.125C12.5781 19.8391 12.4645 19.5648 12.2623 19.3627C12.0602 19.1605 11.7859 19.0469 11.5 19.0469ZM21.5625 10.4219H20.125C19.8391 10.4219 19.5648 10.5355 19.3627 10.7377C19.1605 10.9398 19.0469 11.2141 19.0469 11.5C19.0469 11.7859 19.1605 12.0602 19.3627 12.2623C19.5648 12.4645 19.8391 12.5781 20.125 12.5781H21.5625C21.8484 12.5781 22.1227 12.4645 22.3248 12.2623C22.527 12.0602 22.6406 11.7859 22.6406 11.5C22.6406 11.2141 22.527 10.9398 22.3248 10.7377C22.1227 10.5355 21.8484 10.4219 21.5625 10.4219Z" fill="white"/>
</g>
<defs>
<clipPath id="clip0_235_253">
<rect width="23" height="23" fill="white"/>
</clipPath>
</defs>
</svg>
