<svg width="15" height="16" viewBox="0 0 15 16" fill="none" xmlns="http://www.w3.org/2000/svg">
<path d="M6.06786 12.6357C7.3777 12.6357 8.60074 12.2096 9.59495 11.4995L13.3351 15.2396C13.5087 15.4132 13.7375 15.5 13.9742 15.5C14.4871 15.5 14.858 15.1055 14.858 14.6005C14.858 14.3638 14.7791 14.1428 14.6055 13.9692L10.889 10.2449C11.6702 9.2191 12.1357 7.94871 12.1357 6.56786C12.1357 3.23014 9.40558 0.5 6.06786 0.5C2.72225 0.5 0 3.23014 0 6.56786C0 9.90558 2.72225 12.6357 6.06786 12.6357ZM6.06786 11.3259C3.45608 11.3259 1.30984 9.17175 1.30984 6.56786C1.30984 3.96397 3.45608 1.80984 6.06786 1.80984C8.67175 1.80984 10.8259 3.96397 10.8259 6.56786C10.8259 9.17175 8.67175 11.3259 6.06786 11.3259Z" fill="#19958E"/>
</svg>
