<svg width="28" height="28" viewBox="0 0 28 28" fill="none" xmlns="http://www.w3.org/2000/svg">
<path d="M18.0833 16.3333H17.1616L16.835 16.0183C17.5641 15.1713 18.0969 14.1735 18.3954 13.0965C18.6939 12.0195 18.7507 10.8898 18.5616 9.7883C18.0133 6.54497 15.3066 3.95497 12.04 3.5583C10.8915 3.41301 9.72506 3.53237 8.62983 3.90724C7.53461 4.28211 6.53966 4.90256 5.72111 5.72111C4.90256 6.53966 4.28211 7.53461 3.90724 8.62983C3.53237 9.72506 3.41301 10.8915 3.5583 12.04C3.95497 15.3066 6.54497 18.0133 9.7883 18.5616C10.8898 18.7507 12.0195 18.6939 13.0965 18.3954C14.1735 18.0969 15.1713 17.5641 16.0183 16.835L16.3333 17.1616V18.0833L21.2916 23.0416C21.77 23.52 22.5516 23.52 23.03 23.0416C23.5083 22.5633 23.5083 21.7816 23.03 21.3033L18.0833 16.3333ZM11.0833 16.3333C8.1783 16.3333 5.8333 13.9883 5.8333 11.0833C5.8333 8.1783 8.1783 5.8333 11.0833 5.8333C13.9883 5.8333 16.3333 8.1783 16.3333 11.0833C16.3333 13.9883 13.9883 16.3333 11.0833 16.3333Z" fill="#55575A"/>
</svg>
