<svg width="108" height="60" viewBox="0 0 108 60" fill="none" xmlns="http://www.w3.org/2000/svg">
<path d="M20.5478 14.3237C20.5478 14.3237 34.2012 32.2487 35.3523 34.0574C36.5035 35.8661 35.9702 36.4154 36.4188 38.0843L35.841 39.2339L33.6962 42.2714L30.2352 43.8287C21.5903 33.1108 16.5825 26.1245 15.9815 23.7691L20.5478 14.3237Z" fill="#00877F"/>
<path d="M20.5478 14.3237C20.5478 14.3237 34.2012 32.2487 35.3523 34.0574C36.5035 35.8661 35.9702 36.4154 36.4188 38.0843L35.841 39.2339L33.6962 42.2714L30.2352 43.8287C21.5903 33.1108 16.5825 26.1245 15.9815 23.7691L20.5478 14.3237Z" fill="url(#paint0_linear_202_1069)"/>
<g filter="url(#filter0_d_202_1069)">
<path d="M28.8726 47.1802L4.00003 47.0723L8.95249 37.2186C8.95249 37.2186 30.5318 37.3237 33.6619 37.245C36.7921 37.1662 35.3127 33.9604 35.3127 33.9604C42.2999 46.7022 28.8726 47.1802 28.8726 47.1802Z" fill="#00877F"/>
</g>
<g filter="url(#filter1_d_202_1069)">
<path d="M23.1274 12.1719L48 12.2798L43.0475 22.1335C43.0475 22.1335 21.4682 22.0284 18.3381 22.1071C15.2079 22.1859 16.6873 25.3917 16.6873 25.3917C9.7001 12.6499 23.1274 12.1719 23.1274 12.1719Z" fill="#00877F"/>
</g>
<path d="M48.512 40.798C48.512 41.158 48.488 41.482 48.44 41.77H41.15C41.21 42.49 41.462 43.054 41.906 43.462C42.35 43.87 42.896 44.074 43.544 44.074C44.48 44.074 45.146 43.672 45.542 42.868H48.26C47.972 43.828 47.42 44.62 46.604 45.244C45.788 45.856 44.786 46.162 43.598 46.162C42.638 46.162 41.774 45.952 41.006 45.532C40.25 45.1 39.656 44.494 39.224 43.714C38.804 42.934 38.594 42.034 38.594 41.014C38.594 39.982 38.804 39.076 39.224 38.296C39.644 37.516 40.232 36.916 40.988 36.496C41.744 36.076 42.614 35.866 43.598 35.866C44.546 35.866 45.392 36.07 46.136 36.478C46.892 36.886 47.474 37.468 47.882 38.224C48.302 38.968 48.512 39.826 48.512 40.798ZM45.902 40.078C45.89 39.43 45.656 38.914 45.2 38.53C44.744 38.134 44.186 37.936 43.526 37.936C42.902 37.936 42.374 38.128 41.942 38.512C41.522 38.884 41.264 39.406 41.168 40.078H45.902ZM59.6214 40.798C59.6214 41.158 59.5974 41.482 59.5494 41.77H52.2594C52.3194 42.49 52.5714 43.054 53.0154 43.462C53.4594 43.87 54.0054 44.074 54.6534 44.074C55.5894 44.074 56.2554 43.672 56.6514 42.868H59.3694C59.0814 43.828 58.5294 44.62 57.7134 45.244C56.8974 45.856 55.8954 46.162 54.7074 46.162C53.7474 46.162 52.8834 45.952 52.1154 45.532C51.3594 45.1 50.7654 44.494 50.3334 43.714C49.9134 42.934 49.7034 42.034 49.7034 41.014C49.7034 39.982 49.9134 39.076 50.3334 38.296C50.7534 37.516 51.3414 36.916 52.0974 36.496C52.8534 36.076 53.7234 35.866 54.7074 35.866C55.6554 35.866 56.5014 36.07 57.2454 36.478C58.0014 36.886 58.5834 37.468 58.9914 38.224C59.4114 38.968 59.6214 39.826 59.6214 40.798ZM57.0114 40.078C56.9994 39.43 56.7654 38.914 56.3094 38.53C55.8534 38.134 55.2954 37.936 54.6354 37.936C54.0114 37.936 53.4834 38.128 53.0514 38.512C52.6314 38.884 52.3734 39.406 52.2774 40.078H57.0114ZM67.3648 46L63.9808 41.752V46H61.4608V32.68H63.9808V40.258L67.3288 36.028H70.6048L66.2128 41.032L70.6408 46H67.3648ZM77.8045 46.126C76.6285 46.126 75.5485 45.85 74.5645 45.298C73.5805 44.746 72.8005 43.984 72.2245 43.012C71.6485 42.028 71.3605 40.918 71.3605 39.682C71.3605 38.458 71.6485 37.36 72.2245 36.388C72.8005 35.404 73.5805 34.636 74.5645 34.084C75.5485 33.532 76.6285 33.256 77.8045 33.256C78.9925 33.256 80.0725 33.532 81.0445 34.084C82.0285 34.636 82.8025 35.404 83.3665 36.388C83.9425 37.36 84.2305 38.458 84.2305 39.682C84.2305 40.918 83.9425 42.028 83.3665 43.012C82.8025 43.984 82.0285 44.746 81.0445 45.298C80.0605 45.85 78.9805 46.126 77.8045 46.126ZM77.8045 43.876C78.5605 43.876 79.2265 43.708 79.8025 43.372C80.3785 43.024 80.8285 42.532 81.1525 41.896C81.4765 41.26 81.6385 40.522 81.6385 39.682C81.6385 38.842 81.4765 38.11 81.1525 37.486C80.8285 36.85 80.3785 36.364 79.8025 36.028C79.2265 35.692 78.5605 35.524 77.8045 35.524C77.0485 35.524 76.3765 35.692 75.7885 36.028C75.2125 36.364 74.7625 36.85 74.4385 37.486C74.1145 38.11 73.9525 38.842 73.9525 39.682C73.9525 40.522 74.1145 41.26 74.4385 41.896C74.7625 42.532 75.2125 43.024 75.7885 43.372C76.3765 43.708 77.0485 43.876 77.8045 43.876ZM95.5193 36.028V46H92.9813V44.74C92.6573 45.172 92.2313 45.514 91.7033 45.766C91.1873 46.006 90.6233 46.126 90.0113 46.126C89.2313 46.126 88.5413 45.964 87.9413 45.64C87.3413 45.304 86.8673 44.818 86.5193 44.182C86.1833 43.534 86.0153 42.766 86.0153 41.878V36.028H88.5353V41.518C88.5353 42.31 88.7333 42.922 89.1293 43.354C89.5253 43.774 90.0653 43.984 90.7493 43.984C91.4453 43.984 91.9913 43.774 92.3873 43.354C92.7833 42.922 92.9813 42.31 92.9813 41.518V36.028H95.5193ZM100.94 38.098V42.922C100.94 43.258 101.018 43.504 101.174 43.66C101.342 43.804 101.618 43.876 102.002 43.876H103.172V46H101.588C99.4637 46 98.4017 44.968 98.4017 42.904V38.098H97.2137V36.028H98.4017V33.562H100.94V36.028H103.172V38.098H100.94Z" fill="#00877F"/>
<defs>
<filter id="filter0_d_202_1069" x="0" y="33.9604" width="41.3278" height="22.2198" filterUnits="userSpaceOnUse" color-interpolation-filters="sRGB">
<feFlood flood-opacity="0" result="BackgroundImageFix"/>
<feColorMatrix in="SourceAlpha" type="matrix" values="0 0 0 0 0 0 0 0 0 0 0 0 0 0 0 0 0 0 127 0" result="hardAlpha"/>
<feOffset dy="5"/>
<feGaussianBlur stdDeviation="2"/>
<feComposite in2="hardAlpha" operator="out"/>
<feColorMatrix type="matrix" values="0 0 0 0 0 0 0 0 0 0 0 0 0 0 0 0 0 0 0.25 0"/>
<feBlend mode="normal" in2="BackgroundImageFix" result="effect1_dropShadow_202_1069"/>
<feBlend mode="normal" in="SourceGraphic" in2="effect1_dropShadow_202_1069" result="shape"/>
</filter>
<filter id="filter1_d_202_1069" x="10.6722" y="12.1719" width="41.3278" height="22.2198" filterUnits="userSpaceOnUse" color-interpolation-filters="sRGB">
<feFlood flood-opacity="0" result="BackgroundImageFix"/>
<feColorMatrix in="SourceAlpha" type="matrix" values="0 0 0 0 0 0 0 0 0 0 0 0 0 0 0 0 0 0 127 0" result="hardAlpha"/>
<feOffset dy="5"/>
<feGaussianBlur stdDeviation="2"/>
<feComposite in2="hardAlpha" operator="out"/>
<feColorMatrix type="matrix" values="0 0 0 0 0 0 0 0 0 0 0 0 0 0 0 0 0 0 0.25 0"/>
<feBlend mode="normal" in2="BackgroundImageFix" result="effect1_dropShadow_202_1069"/>
<feBlend mode="normal" in="SourceGraphic" in2="effect1_dropShadow_202_1069" result="shape"/>
</filter>
<linearGradient id="paint0_linear_202_1069" x1="23.1724" y1="24.6784" x2="36.6872" y2="47.7268" gradientUnits="userSpaceOnUse">
<stop stop-color="#113D4A"/>
<stop offset="1" stop-color="white" stop-opacity="0.29"/>
</linearGradient>
</defs>
</svg>
