<svg width="86" height="105" viewBox="0 0 86 105" fill="none" xmlns="http://www.w3.org/2000/svg">
<path d="M33.2498 25.3185C33.2498 25.3185 57.3834 57.0025 59.4182 60.1996C61.453 63.3966 60.5104 64.3675 61.3032 67.3174L60.2819 69.3495L56.4909 74.7186L50.3732 77.4713C35.0926 58.5263 26.2407 46.1774 25.1785 42.014L33.2498 25.3185Z" fill="#00877F"/>
<path d="M33.2498 25.3185C33.2498 25.3185 57.3834 57.0025 59.4182 60.1996C61.453 63.3966 60.5104 64.3675 61.3032 67.3174L60.2819 69.3495L56.4909 74.7186L50.3732 77.4713C35.0926 58.5263 26.2407 46.1774 25.1785 42.014L33.2498 25.3185Z" fill="url(#paint0_linear_205_1282)"/>
<g filter="url(#filter0_d_205_1282)">
<path d="M47.9646 83.3954L4.00002 83.2046L12.7539 65.7874C12.7539 65.7874 50.8973 65.973 56.4301 65.8339C61.963 65.6947 59.3481 60.0281 59.3481 60.0281C71.6986 82.5505 47.9646 83.3954 47.9646 83.3954Z" fill="#00877F"/>
</g>
<g filter="url(#filter1_d_205_1282)">
<path d="M37.8093 21.5149L81.7739 21.7057L73.02 39.1229C73.02 39.1229 34.8766 38.9372 29.3438 39.0764C23.811 39.2155 26.4258 44.8821 26.4258 44.8821C14.0754 22.3598 37.8093 21.5149 37.8093 21.5149Z" fill="#00877F"/>
</g>
<defs>
<filter id="filter0_d_205_1282" x="0" y="60.0282" width="66.9097" height="32.3672" filterUnits="userSpaceOnUse" color-interpolation-filters="sRGB">
<feFlood flood-opacity="0" result="BackgroundImageFix"/>
<feColorMatrix in="SourceAlpha" type="matrix" values="0 0 0 0 0 0 0 0 0 0 0 0 0 0 0 0 0 0 127 0" result="hardAlpha"/>
<feOffset dy="5"/>
<feGaussianBlur stdDeviation="2"/>
<feComposite in2="hardAlpha" operator="out"/>
<feColorMatrix type="matrix" values="0 0 0 0 0 0 0 0 0 0 0 0 0 0 0 0 0 0 0.25 0"/>
<feBlend mode="normal" in2="BackgroundImageFix" result="effect1_dropShadow_205_1282"/>
<feBlend mode="normal" in="SourceGraphic" in2="effect1_dropShadow_205_1282" result="shape"/>
</filter>
<filter id="filter1_d_205_1282" x="18.8643" y="21.5149" width="66.9097" height="32.3673" filterUnits="userSpaceOnUse" color-interpolation-filters="sRGB">
<feFlood flood-opacity="0" result="BackgroundImageFix"/>
<feColorMatrix in="SourceAlpha" type="matrix" values="0 0 0 0 0 0 0 0 0 0 0 0 0 0 0 0 0 0 127 0" result="hardAlpha"/>
<feOffset dy="5"/>
<feGaussianBlur stdDeviation="2"/>
<feComposite in2="hardAlpha" operator="out"/>
<feColorMatrix type="matrix" values="0 0 0 0 0 0 0 0 0 0 0 0 0 0 0 0 0 0 0.25 0"/>
<feBlend mode="normal" in2="BackgroundImageFix" result="effect1_dropShadow_205_1282"/>
<feBlend mode="normal" in="SourceGraphic" in2="effect1_dropShadow_205_1282" result="shape"/>
</filter>
<linearGradient id="paint0_linear_205_1282" x1="37.889" y1="43.6214" x2="61.7777" y2="84.3615" gradientUnits="userSpaceOnUse">
<stop stop-color="#113D4A"/>
<stop offset="1" stop-color="white" stop-opacity="0.29"/>
</linearGradient>
</defs>
</svg>
